<?xml version="1.0" encoding="iso-8859-1"?>
<!-- Generator: Adobe Illustrator 19.0.0, SVG Export Plug-In . SVG Version: 6.00 Build 0)  -->
<svg version="1.1" id="Layer_1" xmlns="http://www.w3.org/2000/svg" xmlns:xlink="http://www.w3.org/1999/xlink" x="0px" y="0px"
	 viewBox="0 0 277.402 277.402" style="enable-background:new 0 0 277.402 277.402;" xml:space="preserve">
<g>
	<path style="fill:#E4E7E7;" d="M42.441,84.883c-9.626,0-17.502,7.876-17.502,17.502V259.9c-5.251,0-8.751,3.5-8.751,8.751
		s3.5,8.751,8.751,8.751h26.253c5.251,0,8.751-3.5,8.751-8.751s-3.5-8.751-8.751-8.751l8.751-175.017
		C59.943,84.883,42.441,84.883,42.441,84.883z M252.462,259.9V102.385c0-9.626-7.876-17.502-17.502-17.502h-17.502L226.21,259.9
		c-5.251,0-8.751,3.5-8.751,8.751s3.5,8.751,8.751,8.751h26.253c5.251,0,8.751-3.5,8.751-8.751S257.712,259.9,252.462,259.9z"/>
	<g>
		<path style="fill:#C8CBCB;" d="M59.942,268.651c0-5.251-3.5-8.751-8.751-8.751l8.751-175.017H42.441V259.9l8.751,17.502
			C56.442,277.402,59.942,273.902,59.942,268.651z M234.96,84.883h-17.502L226.21,259.9c-5.251,0-8.751,3.5-8.751,8.751
			s3.5,8.751,8.751,8.751l8.751-17.502V84.883H234.96z"/>
	</g>
	<path style="fill:#324D5B;" d="M77.444,242.399h122.512L182.454,259.9H94.946L77.444,242.399z"/>
	<path style="fill:#E4E7E7;" d="M138.701,0c48.13,0,86.633,38.504,86.633,86.633v156.64H52.067V86.633
		C52.067,38.504,90.57,0,138.701,0z"/>
	<path style="fill:#324D5B;" d="M138.701,23.627c9.626,0,17.502,7.876,17.502,17.502s-7.876,17.502-17.502,17.502
		s-17.502-7.876-17.502-17.502S129.074,23.627,138.701,23.627z"/>
	<path style="fill:#2494BC;" d="M52.067,84.883v17.502h173.267V84.883H52.067z M94.946,146.139h87.509v-17.502H94.946V146.139z
		 M94.946,181.143h87.509v-17.502H94.946V181.143z M94.946,216.146h87.509v-17.502H94.946V216.146z"/>
</g>
<g>
</g>
<g>
</g>
<g>
</g>
<g>
</g>
<g>
</g>
<g>
</g>
<g>
</g>
<g>
</g>
<g>
</g>
<g>
</g>
<g>
</g>
<g>
</g>
<g>
</g>
<g>
</g>
<g>
</g>
</svg>
